<?xml version="1.0" encoding="utf-8"?>
<!-- Generator: Adobe Illustrator 16.0.4, SVG Export Plug-In . SVG Version: 6.00 Build 0)  -->
<!DOCTYPE svg PUBLIC "-//W3C//DTD SVG 1.1//EN" "http://www.w3.org/Graphics/SVG/1.1/DTD/svg11.dtd">
<svg version="1.1" id="Layer_1" xmlns="http://www.w3.org/2000/svg" xmlns:xlink="http://www.w3.org/1999/xlink" x="0px" y="0px"
	 width="28px" height="28px" viewBox="0 0 28 28" enable-background="new 0 0 28 28" xml:space="preserve">
<path d="M20.6,14.094c0,3.604-2.959,6.531-6.6,6.531c-3.639,0-6.6-2.93-6.6-6.531s2.961-6.532,6.6-6.532V8.75l4.154-2.375L14,4
	v1.188c-4.971,0-9,3.988-9,8.908C5,19.014,9.029,23,14,23s9-3.986,9-8.906H20.6z"/>
<path d="M17.821,13.335l-1.775-1.562l-1.784,1.568L11.598,11l-1.777,1.561l3.553,3.122l0.006-0.006
	c0.227,0.2,0.542,0.323,0.888,0.323c0.348,0,0.661-0.125,0.89-0.325L17.821,13.335z"/>
</svg>
