<?xml version="1.0" encoding="utf-8"?>
<!-- Generator: Adobe Illustrator 16.0.4, SVG Export Plug-In . SVG Version: 6.00 Build 0)  -->
<!DOCTYPE svg PUBLIC "-//W3C//DTD SVG 1.1//EN" "http://www.w3.org/Graphics/SVG/1.1/DTD/svg11.dtd">
<svg version="1.1" id="Layer_1" xmlns="http://www.w3.org/2000/svg" xmlns:xlink="http://www.w3.org/1999/xlink" x="0px" y="0px"
	 width="28px" height="28px" viewBox="0 0 28 28" enable-background="new 0 0 28 28" xml:space="preserve">
<circle fill="#FFFFFF" cx="14.5" cy="14.5" r="8.5"/>
<rect x="14" y="7" fill="#DF961E" width="1" height="2"/>
<rect x="14" y="20" fill="#DF961E" width="1" height="2"/>
<rect x="7" y="14" fill="#DF961E" width="2" height="1"/>
<rect x="20" y="14" fill="#DF961E" width="2" height="1"/>
<polygon fill="#1C75BC" points="17.152,13.631 16.09,12.57 14.5,14.161 14.5,14.161 14.499,14.162 11.495,11.156 10.434,12.217 
	13.439,15.223 13.439,15.223 13.562,15.345 13.969,15.753 13.969,15.753 14.5,16.283 15.561,15.223 15.561,15.223 "/>
<path fill="#1C75BC" d="M22.898,15.74C22.295,19.84,18.764,23,14.5,23C9.813,23,6,19.187,6,14.5C6,9.813,9.813,6,14.5,6
	c2.344,0,4.455,0.967,5.993,2.507l-1.396,1.397l4.949,0.707l-0.707-4.95l-1.43,1.43C20.011,5.189,17.4,4,14.5,4
	C8.701,4,4,8.701,4,14.5C4,20.3,8.701,25,14.5,25c5.79,0,10.482-4.685,10.498-10.472L22.898,15.74z"/>
<path fill="#A7A9AC" d="M14.5,25C8.87,25,4.288,20.565,4.025,15C4.018,15.167,4,15.331,4,15.5C4,21.299,8.701,26,14.5,26
	S25,21.299,25,15.5c0-0.169-0.018-0.333-0.025-0.5C24.712,20.565,20.13,25,14.5,25z"/>
</svg>
