<?xml version="1.0" encoding="utf-8"?>
<!DOCTYPE svg PUBLIC "-//W3C//DTD SVG 1.1//EN" "http://www.w3.org/Graphics/SVG/1.1/DTD/svg11.dtd">
<svg version="1.1" id="Layer_1" xmlns="http://www.w3.org/2000/svg" xmlns:xlink="http://www.w3.org/1999/xlink" x="0px" y="0px"
	 width="82px" height="50px" viewBox="0 0 82 50" enable-background="new 0 0 82 50" xml:space="preserve">
<path fill="#FFFFFF" d="M20.232,50c-0.811,0-1.632-0.05-2.441-0.146l-1.521-4.276c-0.035-0.099-0.116-0.173-0.217-0.2
	c-1.359-0.362-2.672-0.907-3.901-1.618c-0.049-0.028-0.104-0.043-0.159-0.043c-0.046,0-0.093,0.01-0.136,0.03l-4.101,1.949
	c-1.285-1.007-2.445-2.168-3.453-3.453l1.949-4.101c0.044-0.095,0.041-0.204-0.012-0.295c-0.711-1.228-1.255-2.541-1.618-3.9
	c-0.027-0.101-0.102-0.182-0.2-0.217l-4.276-1.521C0.049,31.401,0,30.581,0,29.768s0.049-1.635,0.147-2.441l4.276-1.521
	c0.098-0.035,0.173-0.116,0.2-0.217c0.363-1.359,0.907-2.673,1.618-3.9c0.053-0.091,0.057-0.201,0.012-0.296l-1.949-4.1
	c1.008-1.285,2.168-2.445,3.453-3.454l4.101,1.949c0.043,0.021,0.09,0.031,0.136,0.031c0.055,0,0.11-0.015,0.159-0.043
	c1.088-0.629,2.245-1.129,3.442-1.488v10.066L9.736,37.532c-0.16,0.361-0.127,0.773,0.087,1.105c0.215,0.33,0.58,0.528,0.974,0.528
	h18.869c0.394,0,0.759-0.198,0.974-0.528c0.215-0.332,0.248-0.744,0.087-1.105L24.87,24.354V14.288
	c1.198,0.359,2.354,0.859,3.442,1.488c0.049,0.028,0.104,0.043,0.159,0.043c0.046,0,0.093-0.01,0.136-0.03l4.1-1.949
	c1.286,1.008,2.446,2.168,3.454,3.453l-1.949,4.101c-0.045,0.094-0.04,0.204,0.012,0.295c0.711,1.229,1.255,2.541,1.618,3.9
	c0.027,0.101,0.102,0.182,0.2,0.217l4.276,1.521c0.097,0.809,0.146,1.629,0.146,2.441c0,0.812-0.049,1.632-0.146,2.441l-4.276,1.521
	c-0.098,0.035-0.173,0.116-0.2,0.217c-0.363,1.36-0.907,2.673-1.618,3.9c-0.052,0.09-0.057,0.2-0.012,0.295l1.949,4.101
	c-1.007,1.284-2.168,2.444-3.454,3.453l-4.1-1.949c-0.043-0.021-0.09-0.03-0.136-0.03c-0.055,0-0.11,0.015-0.159,0.043
	c-1.229,0.711-2.541,1.255-3.901,1.618c-0.101,0.027-0.182,0.102-0.217,0.199l-1.52,4.277C21.864,49.95,21.044,50,20.232,50z"/>
<path fill="#D12F27" d="M21.404,9.112c0,1.595-1.292,2.887-2.886,2.887c-1.595,0-2.887-1.292-2.887-2.887
	c0-1.594,1.292-2.887,2.887-2.887C20.111,6.226,21.404,7.519,21.404,9.112z"/>
<path fill="#D12F27" d="M29.667,38.004H10.798l5.959-13.402V14.244h6.951v10.357L29.667,38.004z"/>
<path fill="#D12F27" d="M25.756,5.866c0,1.033-0.837,1.87-1.871,1.87c-1.033,0-1.871-0.837-1.871-1.87s0.838-1.871,1.871-1.871
	C24.919,3.995,25.756,4.833,25.756,5.866z"/>
<path fill="#D12F27" d="M21.084,1.392c0,0.77-0.623,1.393-1.392,1.393c-0.769,0-1.393-0.623-1.393-1.393
	C18.3,0.623,18.923,0,19.692,0C20.461,0,21.084,0.623,21.084,1.392z"/>
<g>
	<path fill="#FFFFFF" d="M50.258,15.55v2.177h2.077v1.231h-2.077v3.196h-1.779v-7.91h4.254v1.306H50.258z"/>
	<path fill="#FFFFFF" d="M58.243,14.244v6.529c0,0.858-0.448,1.381-1.579,1.381h-1.667c-1.132,0-1.567-0.522-1.567-1.381v-6.529
		h1.779v6.293c0,0.224,0.087,0.312,0.323,0.312h0.597c0.249,0,0.336-0.088,0.336-0.312v-6.293H58.243z"/>
	<path fill="#FFFFFF" d="M63.667,20.849v1.306h-4.315v-7.91h4.217v1.306h-2.438v1.928h2.076v1.307h-2.076v2.064H63.667z"/>
	<path fill="#FFFFFF" d="M68.482,20.849v1.306h-4.043v-7.91h1.766v6.604H68.482z"/>
</g>
<g>
	<path fill="#FFFFFF" d="M51.862,25.934c1.132,0,1.579,0.522,1.579,1.368v5.162c0,0.858-0.447,1.381-1.579,1.381h-3.296v-7.911
		H51.862z M51.663,27.464c0-0.224-0.099-0.312-0.336-0.312h-0.982v5.474h0.982c0.237,0,0.336-0.088,0.336-0.312V27.464z"/>
	<path fill="#FFFFFF" d="M58.828,32.538v1.307h-4.315v-7.911h4.216v1.307h-2.438v1.928h2.077v1.306h-2.077v2.064H58.828z"/>
	<path fill="#FFFFFF" d="M64.787,25.934l-1.742,7.911h-2.176l-1.754-7.911h1.854l0.982,5.871l0.994-5.871H64.787z"/>
	<path fill="#FFFFFF" d="M68.631,25.934c1.133,0,1.567,0.522,1.567,1.368v5.162c0,0.858-0.435,1.381-1.567,1.381h-1.666
		c-1.132,0-1.58-0.522-1.58-1.381v-5.162c0-0.846,0.448-1.368,1.58-1.368H68.631z M68.42,27.551c0-0.224-0.088-0.311-0.324-0.311
		h-0.597c-0.249,0-0.335,0.087-0.335,0.311v4.677c0,0.224,0.086,0.311,0.335,0.311h0.597c0.236,0,0.324-0.087,0.324-0.311V27.551z"
		/>
	<path fill="#FFFFFF" d="M74.527,25.934c1.133,0,1.567,0.522,1.567,1.368v2.4c0,0.858-0.435,1.381-1.567,1.381h-1.492v2.762H71.27
		v-7.911H74.527z M74.316,27.551c0-0.224-0.087-0.311-0.323-0.311h-0.958v2.537h0.958c0.236,0,0.323-0.087,0.323-0.311V27.551z"/>
	<path fill="#FFFFFF" d="M79.69,30.797c0-0.224-0.087-0.298-0.335-0.298H78.26c-1.094,0-1.467-0.548-1.467-1.394v-1.804
		c0-0.846,0.436-1.368,1.566-1.368h1.518c1.132,0,1.566,0.522,1.566,1.368v1.033h-1.777v-0.784c0-0.224-0.088-0.311-0.336-0.311
		h-0.423c-0.249,0-0.337,0.087-0.337,0.311v1.394c0,0.224,0.088,0.299,0.337,0.299h1.069c1.106,0,1.492,0.51,1.492,1.355v1.865
		c0,0.858-0.436,1.381-1.566,1.381h-1.506c-1.131,0-1.58-0.522-1.58-1.381v-1.02h1.779v0.783c0,0.224,0.087,0.311,0.336,0.311h0.424
		c0.248,0,0.335-0.087,0.335-0.311V30.797z"/>
</g>
<g>
	<path fill="#FFFFFF" d="M51.738,37.384c1.131,0,1.566,0.522,1.566,1.368v2.401c0,0.857-0.436,1.38-1.566,1.38h-1.493v2.762h-1.767
		v-7.911H51.738z M51.526,39.001c0-0.224-0.087-0.311-0.323-0.311h-0.958v2.537h0.958c0.236,0,0.323-0.087,0.323-0.312V39.001z"/>
	<path fill="#FFFFFF" d="M57.349,37.384c1.132,0,1.567,0.522,1.567,1.368v5.162c0,0.858-0.436,1.381-1.567,1.381h-1.667
		c-1.131,0-1.58-0.522-1.58-1.381v-5.162c0-0.846,0.449-1.368,1.58-1.368H57.349z M57.137,39.001c0-0.224-0.087-0.311-0.323-0.311
		h-0.597c-0.249,0-0.336,0.087-0.336,0.311v4.677c0,0.224,0.087,0.311,0.336,0.311h0.597c0.236,0,0.323-0.087,0.323-0.311V39.001z"
		/>
	<path fill="#FFFFFF" d="M62.062,42.335h-0.311v2.96h-1.766v-7.911h3.258c1.133,0,1.567,0.522,1.567,1.368v2.215
		c0,0.684-0.286,1.156-0.995,1.318l1.394,3.01h-1.903L62.062,42.335z M61.752,41.078h0.958c0.236,0,0.323-0.074,0.323-0.299v-1.778
		c0-0.224-0.087-0.311-0.323-0.311h-0.958V41.078z"/>
	<path fill="#FFFFFF" d="M70,38.69h-1.456v6.604h-1.778V38.69h-1.443v-1.307H70V38.69z"/>
	<path fill="#FFFFFF" d="M73.955,43.864h-1.803l-0.273,1.431h-1.754l1.791-7.911h2.264l1.84,7.911h-1.79L73.955,43.864z
		 M73.694,42.571l-0.646-3.346L72.4,42.571H73.694z"/>
	<path fill="#FFFFFF" d="M80.673,43.988v1.307h-4.042v-7.911h1.766v6.604H80.673z"/>
</g>
</svg>
