<?xml version="1.0" encoding="utf-8"?>
<!-- Generator: Adobe Illustrator 16.0.4, SVG Export Plug-In . SVG Version: 6.00 Build 0)  -->
<!DOCTYPE svg PUBLIC "-//W3C//DTD SVG 1.1//EN" "http://www.w3.org/Graphics/SVG/1.1/DTD/svg11.dtd">
<svg version="1.1" id="Layer_1" xmlns="http://www.w3.org/2000/svg" xmlns:xlink="http://www.w3.org/1999/xlink" x="0px" y="0px"
	 width="28px" height="28px" viewBox="0 0 28 28" enable-background="new 0 0 28 28" xml:space="preserve">
<path fill="#A7A9AC" d="M21,22H7c-2.048,0-3.729-1.564-3.955-3.555C3.018,18.627,3,18.812,3,19c0,2.2,1.8,4,4,4h14c2.2,0,4-1.8,4-4
	c0-0.187-0.018-0.369-0.046-0.548C24.725,20.438,23.045,22,21,22z"/>
<g>
	<path fill="#1C75BC" d="M22.271,14.228C22.732,13.423,23,12.494,23,11.5C23,8.462,20.538,6,17.5,6
		c-2.209,0-4.107,1.304-4.982,3.182C11.718,8.455,10.666,8,9.5,8C7.014,8,5,10.014,5,12.5c0,0.657,0.148,1.277,0.401,1.84
		C3.993,14.96,3,16.368,3,18c0,2.2,1.8,4,4,4h14c2.2,0,4-1.8,4-4C25,16.247,23.85,14.765,22.271,14.228z"/>
</g>
<g>
	<path fill="#FFFFFF" d="M20,14.5c-0.357,0-0.656,0.198-0.833,0.479H18v0.01c-0.154,0.005-0.306,0.072-0.399,0.21l-1.6,2.383
		l-3.585-5.36C12.323,12.083,12.167,12,12,12h0c-0.167,0-0.323,0.084-0.416,0.223l-1.836,2.756H7.29H4.396
		c-0.33,0.285-0.607,0.624-0.831,1h2.982H10v-0.01c0.167,0.006,0.332-0.064,0.432-0.213l1.569-2.355l3.583,5.357
		c0.093,0.139,0.249,0.221,0.415,0.221c0.001,0,0.001,0,0.001,0c0.167,0,0.322-0.082,0.415-0.221l1.867-2.779h0.856
		C19.31,16.284,19.624,16.5,20,16.5c0.553,0,1-0.447,1-1C21,14.948,20.553,14.5,20,14.5z"/>
</g>
</svg>
