<?xml version="1.0" encoding="utf-8"?>
<!-- Generator: Adobe Illustrator 16.0.4, SVG Export Plug-In . SVG Version: 6.00 Build 0)  -->
<!DOCTYPE svg PUBLIC "-//W3C//DTD SVG 1.1//EN" "http://www.w3.org/Graphics/SVG/1.1/DTD/svg11.dtd">
<svg version="1.1" id="Layer_1" xmlns="http://www.w3.org/2000/svg" xmlns:xlink="http://www.w3.org/1999/xlink" x="0px" y="0px"
	 width="28px" height="28px" viewBox="0 0 28 28" enable-background="new 0 0 28 28" xml:space="preserve">
<g>
	<path d="M20.123,15.5c-0.189,0.047-0.397-0.018-0.522-0.184l-2.101-2.79v6.505c0,0.215-0.138,0.406-0.342,0.475
		c-0.052,0.017-0.105,0.025-0.158,0.025c-0.154,0-0.304-0.071-0.4-0.2l-2.984-3.984c-0.064-0.086-0.099-0.19-0.1-0.298l-0.005-1.293
		l-2.042,5.436c-0.064,0.171-0.217,0.294-0.398,0.319c-0.179,0.024-0.361-0.049-0.471-0.196L7.75,15.5H3.898
		C3.342,16.187,3,17.053,3,18c0,2.2,1.8,4,4,4h14c2.2,0,4-1.8,4-4c0-0.951-0.347-1.816-0.908-2.5H20.123z"/>
	<path d="M5.1,14.5H8v0.008c0.152,0,0.302,0.061,0.4,0.192l2.453,3.284l2.678-7.129c0.085-0.226,0.32-0.359,0.557-0.316
		c0.237,0.043,0.411,0.249,0.412,0.49l0.015,3.85l1.985,2.65v-6.498c0-0.215,0.138-0.406,0.342-0.474
		c0.203-0.07,0.428,0.001,0.558,0.173l2.838,3.77h2.649c-0.196-0.106-0.401-0.2-0.615-0.272C22.732,13.423,23,12.494,23,11.5
		C23,8.462,20.538,6,17.5,6c-2.209,0-4.107,1.304-4.982,3.182C11.718,8.455,10.666,8,9.5,8C7.014,8,5,10.014,5,12.5
		c0,0.657,0.148,1.277,0.401,1.84C5.297,14.387,5.199,14.445,5.1,14.5z"/>
</g>
</svg>
