<?xml version="1.0" encoding="utf-8"?>
<!-- Generator: Adobe Illustrator 16.0.4, SVG Export Plug-In . SVG Version: 6.00 Build 0)  -->
<!DOCTYPE svg PUBLIC "-//W3C//DTD SVG 1.1//EN" "http://www.w3.org/Graphics/SVG/1.1/DTD/svg11.dtd">
<svg version="1.1" id="Layer_1" xmlns="http://www.w3.org/2000/svg" xmlns:xlink="http://www.w3.org/1999/xlink" x="0px" y="0px"
	 width="28px" height="28px" viewBox="0 0 28 28" enable-background="new 0 0 28 28" xml:space="preserve">
<g>
	<rect x="7" y="6" fill="#FFFFFF" width="14" height="17"/>
	<path fill="#1C75BC" d="M20,7v15H8V7H20 M22,5H6v19h16V5L22,5z"/>
</g>
<rect x="9" y="8" fill="#A8A9AC" width="4" height="1"/>
<rect x="9" y="10" fill="#A8A9AC" width="4" height="1"/>
<rect x="9" y="12" fill="#A8A9AC" width="5" height="1"/>
<rect x="9" y="14" fill="#A8A9AC" width="10" height="1"/>
<rect x="9" y="16" fill="#A8A9AC" width="10" height="1"/>
<rect x="9" y="18" fill="#A8A9AC" width="10" height="1"/>
<rect x="9" y="20" fill="#A8A9AC" width="10" height="1"/>
<circle fill="#DF961E" cx="18.5" cy="8.5" r="4.5"/>
<g opacity="0.3">
	<path fill="#A7A9AC" d="M18.5,13c-2.315,0-4.198-1.752-4.449-4C14.031,9.167,14,9.329,14,9.5c0,2.486,2.014,4.5,4.5,4.5
		S23,11.986,23,9.5c0-0.171-0.031-0.333-0.051-0.5C22.698,11.248,20.815,13,18.5,13z"/>
	<path fill="#221F20" d="M22.949,9c-0.251,2.248-2.134,4-4.449,4s-4.198-1.752-4.449-4C14.031,9.167,14,9.329,14,9.5
		c0,2.486,2.014,4.5,4.5,4.5S23,11.986,23,9.5C23,9.329,22.969,9.167,22.949,9L22.949,9z"/>
</g>
<polygon fill="#FFFFFF" points="19,8 19,6 18,6 18,8 18,9 19,9 20,9 20,8 "/>
<polygon fill="#A7A9AC" points="21.199,25 6.895,25 6,24 22.094,24 "/>
</svg>
