<?xml version="1.0" encoding="utf-8"?>
<!-- Generator: Adobe Illustrator 16.0.4, SVG Export Plug-In . SVG Version: 6.00 Build 0)  -->
<!DOCTYPE svg PUBLIC "-//W3C//DTD SVG 1.1//EN" "http://www.w3.org/Graphics/SVG/1.1/DTD/svg11.dtd">
<svg version="1.1" id="Layer_1" xmlns="http://www.w3.org/2000/svg" xmlns:xlink="http://www.w3.org/1999/xlink" x="0px" y="0px"
	 width="28px" height="28px" viewBox="0 0 28 28" enable-background="new 0 0 28 28" xml:space="preserve">
<path fill="#1C75BC" d="M22,10h-4V8c0-1.1-0.9-2-2-2h-4c-1.1,0-2,0.9-2,2v2H6c-1.1,0-2,0.9-2,2v8c0,1.1,0.9,2,2,2h16
	c1.1,0,2-0.9,2-2v-8C24,10.9,23.1,10,22,10z M12,8h4v2h-4V8z"/>
<polygon fill="#A7A9AC" points="22,22 6,22 5,23 23,23 "/>
<path fill="#FFFFFF" d="M12,13v1c0,0.55,0.45,1,1,1h2c0.55,0,1-0.45,1-1v-1H12z"/>
<rect x="4" y="13" fill="#E0992A" width="20" height="1"/>
</svg>
