<?xml version="1.0" encoding="utf-8"?>
<!-- Generator: Adobe Illustrator 16.0.4, SVG Export Plug-In . SVG Version: 6.00 Build 0)  -->
<!DOCTYPE svg PUBLIC "-//W3C//DTD SVG 1.1//EN" "http://www.w3.org/Graphics/SVG/1.1/DTD/svg11.dtd">
<svg version="1.1" id="Layer_1" xmlns="http://www.w3.org/2000/svg" xmlns:xlink="http://www.w3.org/1999/xlink" x="0px" y="0px"
	 width="98px" height="98px" viewBox="0 0 98 98" enable-background="new 0 0 98 98" xml:space="preserve">
<path fill="#F2F2F2" d="M79.271,36.387c-0.006-0.005-0.016-0.01-0.021-0.015l1.052-0.543c0,0-7.028-5.242-15.771-8.287L70.051,20
	H27.447l5.657,7.727c-8.439,2.993-15.26,8.305-15.26,8.305l3.488,1.804l7.17,3.755c0.104,0.055,0.219,0.083,0.331,0.083
	c0.068,0,0.13-0.04,0.196-0.06c2.789-1.803,5.8-3.227,8.971-4.234v2.48v4v18.064L23.572,93.822c-0.387,0.873-0.431,1.984,0.09,2.785
	S24.941,98,25.896,98H71.57c0.953,0,1.836-0.592,2.354-1.393c0.521-0.801,0.62-1.855,0.233-2.729L60,61.925V43.86v-4v-2.37
	c0.225,0.073,0.445,0.151,0.669,0.229c0.384,0.13,0.767,0.262,1.146,0.403c2.371,0.919,4.644,2.077,6.781,3.455
	c0.104,0.054,0.213,0.097,0.324,0.097c0.114,0,0.229-0.028,0.332-0.081l7.268-3.809l1.473-0.761l1.236-0.628l0.041,0.021
	c-0.014-0.011-0.024-0.022-0.041-0.033l0.021-0.009L79.271,36.387z"/>
<g>
	<path fill="#DA3C3B" d="M44.682,19.043c3.301,0,5.987,2.686,5.987,5.987s-2.686,5.987-5.987,5.987s-5.987-2.686-5.987-5.987
		S41.381,19.043,44.682,19.043 M44.682,18.043c-3.859,0-6.987,3.128-6.987,6.987c0,3.859,3.128,6.987,6.987,6.987
		s6.987-3.128,6.987-6.987C51.669,21.171,48.541,18.043,44.682,18.043L44.682,18.043z"/>
</g>
<g>
	<path fill="#DA3C3B" d="M56.486,38.451v24.07v0.212l0.086,0.194l13.799,31.036H27.776l13.799-31.036l0.086-0.194v-0.212v-24.07
		H56.486 M57.486,37.451H40.661v25.07L26.237,94.964H71.91L57.486,62.521V37.451L57.486,37.451z"/>
</g>
<g>
	<path fill="#DA3C3B" d="M57.676,13.644c1.945,0,3.527,1.582,3.527,3.527s-1.582,3.527-3.527,3.527s-3.527-1.583-3.527-3.527
		S55.73,13.644,57.676,13.644 M57.676,12.644c-2.5,0-4.527,2.027-4.527,4.527c0,2.5,2.027,4.527,4.527,4.527
		s4.527-2.027,4.527-4.527C62.203,14.671,60.176,12.644,57.676,12.644L57.676,12.644z"/>
</g>
<g>
	<path fill="#DA3C3B" d="M47.525,3.972c1.307,0,2.37,1.063,2.37,2.37s-1.063,2.37-2.37,2.37s-2.37-1.063-2.37-2.37
		S46.218,3.972,47.525,3.972 M47.525,2.972c-1.861,0-3.37,1.509-3.37,3.37c0,1.861,1.509,3.37,3.37,3.37s3.37-1.509,3.37-3.37
		C50.895,4.481,49.386,2.972,47.525,2.972L47.525,2.972z"/>
</g>
</svg>
