<?xml version="1.0" encoding="utf-8"?>
<!-- Generator: Adobe Illustrator 16.0.4, SVG Export Plug-In . SVG Version: 6.00 Build 0)  -->
<!DOCTYPE svg PUBLIC "-//W3C//DTD SVG 1.1//EN" "http://www.w3.org/Graphics/SVG/1.1/DTD/svg11.dtd">
<svg version="1.1" id="Layer_1" xmlns="http://www.w3.org/2000/svg" xmlns:xlink="http://www.w3.org/1999/xlink" x="0px" y="0px"
	 width="98px" height="98px" viewBox="0 0 98 98" enable-background="new 0 0 98 98" xml:space="preserve">
<g>
	<path fill="#999999" d="M48.736,1c1.716,0,3.456,0.094,5.177,0.279l3.478,9.773c0.195,0.547,0.651,0.963,1.22,1.115
		c0.114,0.031,0.262,0.063,0.414,0.098c0.117,0.026,0.292,0.065,0.406,0.095c0.162,0.112,0.357,0.178,0.569,0.178
		c0.021,0,0.042,0,0.062-0.002c2.633,0.792,5.104,1.88,7.742,3.406c0.277,0.162,0.562,0.241,0.868,0.241
		c0.265,0,0.52-0.057,0.76-0.17l9.361-4.455c2.703,2.179,5.167,4.646,7.337,7.347l-4.463,9.402
		c-0.107,0.228-0.159,0.477-0.159,0.759c0,0.02,0.001,0.039,0.002,0.059c0.016,0.266,0.1,0.536,0.24,0.778
		c1.701,2.945,2.991,6.042,3.836,9.209c0.146,0.543,0.585,1.006,1.153,1.21l9.839,3.476C96.787,45.509,97,47.277,97,49.022
		c0,1.704-0.211,3.468-0.42,5.178l-9.918,3.48c-0.544,0.196-0.96,0.646-1.112,1.208c-0.858,3.215-2.142,6.313-3.815,9.208
		c-0.137,0.235-0.214,0.498-0.232,0.828c-0.002,0.28,0.054,0.541,0.165,0.771l4.464,9.401c-2.176,2.706-4.639,5.174-7.333,7.348
		l-9.356-4.454c-0.239-0.114-0.493-0.173-0.756-0.173c-0.306,0-0.6,0.079-0.876,0.238c-2.643,1.528-5.111,2.616-7.74,3.407
		c-0.023-0.001-0.046-0.002-0.069-0.002c-0.212,0-0.409,0.066-0.571,0.179c-0.113,0.03-0.285,0.068-0.399,0.095
		c-0.153,0.033-0.3,0.066-0.42,0.099c-0.572,0.156-1.029,0.573-1.221,1.115l-3.463,9.772C52.202,96.906,50.469,97,48.763,97
		c-1.694,0-3.421-0.094-5.142-0.278l-3.414-9.775c-0.098-0.272-0.326-0.911-1.13-1.125c-0.115-0.03-0.305-0.081-0.429-0.121
		c-0.175-0.148-0.401-0.238-0.648-0.238c-0.022,0-0.043,0.001-0.065,0.002c-2.869-0.857-5.632-2.033-8.005-3.404
		c-0.401-0.236-1.063-0.243-1.138-0.243c-0.263,0-0.527,0.06-0.76,0.171l-9.361,4.456c-2.7-2.177-5.163-4.644-7.333-7.346
		l4.466-9.399c0.11-0.231,0.168-0.496,0.168-0.765c0-0.021,0-0.042-0.002-0.062c-0.019-0.298-0.092-0.553-0.223-0.775
		c-1.658-2.87-2.937-5.968-3.801-9.206c-0.153-0.577-0.548-1.018-1.083-1.21l-9.7-3.473C1,52.495,1,50.732,1,49.022v-0.068
		c0-1.705,0-3.46,0.163-5.16l9.64-3.472c0.544-0.195,0.96-0.645,1.114-1.21c0.855-3.21,2.139-6.308,3.818-9.211
		c0.132-0.231,0.209-0.489,0.228-0.765c0.001-0.022,0.002-0.044,0.002-0.067c0-0.281-0.057-0.541-0.165-0.764l-4.458-9.391
		c2.162-2.689,4.633-5.16,7.359-7.356l9.387,4.452c0.336,0.162,0.718,0.175,0.827,0.175c0.1,0,0.62-0.012,1.008-0.239
		c2.372-1.373,5.135-2.548,8.011-3.408c0.022,0.001,0.044,0.002,0.066,0.002c0.247,0,0.472-0.089,0.646-0.237
		c0.124-0.04,0.314-0.091,0.43-0.122c0.003,0,0.052-0.014,0.055-0.014c0.504-0.14,0.821-0.496,0.942-1.057
		c0.004-0.019,0.007-0.04,0.013-0.057l3.472-9.773C45.281,1.094,47.02,1,48.736,1 M48.736,0c-1.966,0-3.952,0.12-5.912,0.356
		l-3.681,10.361c-0.084,0.238-0.036,0.418-0.279,0.485C38.491,11.302,38,11.428,38,11.539v-0.064c-3,0.869-5.944,2.08-8.578,3.605
		c-0.118,0.069-0.374,0.104-0.507,0.104c-0.111,0-0.287-0.025-0.391-0.075l-9.957-4.722c-3.11,2.443-5.934,5.254-8.375,8.369
		l0.006,0.027c-0.004,0.005-0.013,0.01-0.017,0.016l4.716,9.935c0.051,0.106,0.068,0.222,0.068,0.335
		c-0.008,0.116-0.038,0.231-0.098,0.335c-1.721,2.976-3.039,6.156-3.917,9.451c-0.066,0.244-0.247,0.441-0.484,0.526l-10.23,3.684
		C-0.001,45.019,0,47.007,0,48.978C0,48.985,0,48.992,0,49s0,0.015,0,0.022c0,1.967,0,3.955,0.235,5.916l10.291,3.684
		c0.236,0.085,0.389,0.281,0.454,0.525c0.878,3.291,2.181,6.472,3.902,9.449c0.061,0.104,0.083,0.221,0.09,0.338
		c0,0.112-0.021,0.229-0.071,0.334l-4.721,9.936c0.004,0.005,0.008,0.011,0.012,0.016l-0.014,0.027
		c2.438,3.113,5.247,5.925,8.359,8.368l9.925-4.724c0.104-0.05,0.217-0.074,0.33-0.074c0.133,0,0.512,0.035,0.63,0.104
		C32.056,84.443,35,85.657,38,86.525v-0.063c0,0.112,0.491,0.238,0.865,0.338c0.243,0.064,0.316,0.246,0.401,0.483l3.618,10.361
		C44.844,97.88,46.799,98,48.763,98c1.965,0,3.936-0.12,5.896-0.355l3.672-10.361c0.084-0.237,0.299-0.418,0.542-0.484
		c0.373-0.1,1.127-0.225,1.127-0.337v0.065c3-0.869,5.677-2.082,8.311-3.605c0.119-0.068,0.24-0.104,0.375-0.104
		c0.11,0,0.219,0.024,0.322,0.074l9.924,4.724c3.11-2.443,5.916-5.255,8.357-8.369l-0.014-0.026
		c0.004-0.006,0.009-0.012,0.013-0.017l-4.718-9.937c-0.051-0.105-0.069-0.221-0.068-0.334c0.007-0.117,0.037-0.231,0.098-0.336
		c1.721-2.976,3.037-6.156,3.916-9.451c0.066-0.244,0.248-0.439,0.484-0.524l10.498-3.685C97.734,52.98,98,50.993,98,49.022
		c0-0.008,0-0.015,0-0.022s0-0.015,0-0.022c0-1.967-0.268-3.955-0.502-5.916l-10.425-3.683c-0.236-0.085-0.455-0.282-0.521-0.526
		c-0.878-3.292-2.215-6.471-3.936-9.45c-0.061-0.104-0.102-0.221-0.108-0.337c0-0.114,0.015-0.228,0.064-0.334l4.716-9.935
		c-0.004-0.005-0.01-0.01-0.014-0.016l0.013-0.027c-2.438-3.114-5.248-5.925-8.36-8.368l-9.925,4.723
		c-0.104,0.049-0.217,0.073-0.33,0.073c-0.133,0-0.243-0.034-0.362-0.104C65.678,13.555,63,12.343,60,11.474v0.063
		c0-0.111-0.758-0.237-1.133-0.337c-0.242-0.064-0.449-0.246-0.534-0.484l-3.687-10.36C52.688,0.12,50.7,0,48.736,0L48.736,0z"/>
</g>
</svg>
