<?xml version="1.0" encoding="utf-8"?>
<!-- Generator: Adobe Illustrator 16.0.4, SVG Export Plug-In . SVG Version: 6.00 Build 0)  -->
<!DOCTYPE svg PUBLIC "-//W3C//DTD SVG 1.1//EN" "http://www.w3.org/Graphics/SVG/1.1/DTD/svg11.dtd">
<svg version="1.1" id="Layer_1" xmlns="http://www.w3.org/2000/svg" xmlns:xlink="http://www.w3.org/1999/xlink" x="0px" y="0px"
	 width="295px" height="350px" viewBox="0 0 295 350" enable-background="new 0 0 295 350" xml:space="preserve">
<polyline fill="none" stroke="#D4D4D6" stroke-miterlimit="10" points="276.666,45.667 281.334,104 162.666,162 184.334,183 
	131,251.667 "/>
<polyline fill="none" stroke="#D4D4D6" stroke-miterlimit="10" points="172.666,0 177.666,51.667 225.334,56.333 235.334,82 
	175.666,107.667 191.334,148 220.666,207 245.334,121.667 137,28.667 196.666,0 "/>
<polyline fill="none" stroke="#D4D4D6" stroke-miterlimit="10" points="169.666,0 131.667,72.333 93.333,12 69.667,25 "/>
<polyline fill="none" stroke="#D4D4D6" stroke-miterlimit="10" points="0,234 57.333,255 90,177.667 93,284 192.334,276.667 
	259.666,335.334 288.334,300.334 "/>
<polyline fill="none" stroke="#D4D4D6" stroke-miterlimit="10" points="0,346 52.333,322.334 141.667,327 161.334,263.667 "/>
<polyline fill="none" stroke="#D4D4D6" stroke-miterlimit="10" points="258.666,350 214.334,233.667 270,241 "/>
<polyline fill="none" stroke="#D4D4D6" stroke-miterlimit="10" points="236,350 172,257.334 180,232.667 220.666,207 "/>
<polyline fill="none" stroke="#D4D4D6" stroke-miterlimit="10" points="176.334,350 141.667,327 116,269 "/>
<polyline fill="none" stroke="#D4D4D6" stroke-miterlimit="10" points="48.667,350 78.333,299 150.334,319 172,257.334 
	214.334,233.667 156.666,185.667 250.334,160 "/>
<polyline fill="none" stroke="#D4D4D6" stroke-miterlimit="10" points="115,350 52.333,322.334 30.333,286 115,236.334 "/>
<polyline fill="none" stroke="#D4D4D6" stroke-miterlimit="10" points="139,0 104,81.333 35.667,120 "/>
<line fill="none" stroke="#D4D4D6" stroke-miterlimit="10" x1="207.666" y1="0" x2="181" y2="66.333"/>
<polyline fill="none" stroke="#D4D4D6" stroke-miterlimit="10" points="225.334,56.333 191.334,148 247,194.334 "/>
<circle fill="#D4D4D6" cx="93" cy="12.667" r="3"/>
<circle fill="#D4D4D6" cx="131.554" cy="72.004" r="3"/>
<circle fill="#D4D4D6" cx="137" cy="28.667" r="3"/>
<circle fill="#D4D4D6" cx="177.75" cy="51.667" r="3"/>
<circle fill="#D4D4D6" cx="225.334" cy="56.333" r="3"/>
<circle fill="#D4D4D6" cx="181" cy="66.333" r="3"/>
<circle fill="#D4D4D6" cx="235.334" cy="82" r="3"/>
<circle fill="#D4D4D6" cx="276.666" cy="45.667" r="3"/>
<circle fill="#D4D4D6" cx="281.334" cy="104" r="3"/>
<circle fill="#D4D4D6" cx="245.334" cy="121.667" r="3"/>
<circle fill="#D4D4D6" cx="175.834" cy="107.667" r="3"/>
<circle fill="#D4D4D6" cx="211.334" cy="92.917" r="3"/>
<circle fill="#D4D4D6" cx="191.584" cy="147.917" r="3"/>
<circle fill="#D4D4D6" cx="162.834" cy="162.167" r="3"/>
<circle fill="#D4D4D6" cx="35.583" cy="120.167" r="3"/>
<circle fill="#D4D4D6" cx="69.667" cy="25" r="3"/>
<circle fill="#D4D4D6" cx="249.916" cy="160.25" r="3"/>
<circle fill="#D4D4D6" cx="246.916" cy="194.75" r="3"/>
<circle fill="#D4D4D6" cx="220.666" cy="206.75" r="3"/>
<circle fill="#D4D4D6" cx="183.916" cy="183.5" r="3"/>
<circle fill="#D4D4D6" cx="131.417" cy="251.25" r="3"/>
<circle fill="#D4D4D6" cx="90" cy="177.667" r="3"/>
<circle fill="#D4D4D6" cx="57.25" cy="254.25" r="3"/>
<circle fill="#D4D4D6" cx="115" cy="236.75" r="3"/>
<circle fill="#D4D4D6" cx="93" cy="284" r="3"/>
<circle fill="#D4D4D6" cx="116" cy="269" r="3"/>
<circle fill="#D4D4D6" cx="161" cy="264.25" r="3"/>
<circle fill="#D4D4D6" cx="214.334" cy="233.667" r="3"/>
<circle fill="#D4D4D6" cx="270" cy="241" r="3"/>
<circle fill="#D4D4D6" cx="287.5" cy="300.25" r="3"/>
<circle fill="#D4D4D6" cx="259.666" cy="335.334" r="3"/>
<circle fill="#D4D4D6" cx="192.5" cy="277.25" r="3"/>
<circle fill="#D4D4D6" cx="172.416" cy="257.333" r="3"/>
<circle fill="#D4D4D6" cx="150.666" cy="318.583" r="3"/>
<circle fill="#D4D4D6" cx="141.917" cy="326.333" r="3"/>
<circle fill="#D4D4D6" cx="78.333" cy="299" r="3"/>
<circle fill="#D4D4D6" cx="52.333" cy="322.334" r="3"/>
<circle fill="#D4D4D6" cx="30.333" cy="286" r="3"/>
</svg>
