<?xml version="1.0" encoding="utf-8"?>
<!-- Generator: Adobe Illustrator 16.0.4, SVG Export Plug-In . SVG Version: 6.00 Build 0)  -->
<!DOCTYPE svg PUBLIC "-//W3C//DTD SVG 1.1//EN" "http://www.w3.org/Graphics/SVG/1.1/DTD/svg11.dtd">
<svg version="1.1" id="Layer_1" xmlns="http://www.w3.org/2000/svg" xmlns:xlink="http://www.w3.org/1999/xlink" x="0px" y="0px"
	 width="28px" height="28px" viewBox="0 0 28 28" enable-background="new 0 0 28 28" xml:space="preserve">
<rect x="-1285.409" y="-23.084" fill="none" width="1440" height="1024"/>
<path fill-rule="evenodd" clip-rule="evenodd" fill="#4C748E" d="M12.453,17.742c-3.323-1.694-6.312-2.7-7.29-2.513l4.288-2.546
	c0.039-0.091,0.079-0.179,0.125-0.268l1.875-3.68c1.064-2.089,3.521-3.045,5.766-2.374c0.008-0.015,0.013-0.031,0.021-0.046
	c0.223-0.439,0.774-0.608,1.229-0.376c0.454,0.231,0.642,0.776,0.419,1.217c-0.008,0.016-0.018,0.029-0.025,0.044
	c1.86,1.421,2.533,3.972,1.469,6.061l-1.875,3.679c-0.045,0.089-0.092,0.175-0.145,0.259l0.46,4.967
	C18.348,21.262,15.776,19.435,12.453,17.742"/>
<path fill-rule="evenodd" clip-rule="evenodd" fill="#4C748E" d="M10.215,17.432c0.621,0.279,1.267,0.587,1.926,0.923
	c0.662,0.337,1.289,0.679,1.879,1.016c-0.533,0.981-1.78,1.353-2.816,0.825C10.168,19.668,9.735,18.44,10.215,17.432"/>
</svg>
