<?xml version="1.0" encoding="utf-8"?>
<!-- Generator: Adobe Illustrator 16.0.4, SVG Export Plug-In . SVG Version: 6.00 Build 0)  -->
<!DOCTYPE svg PUBLIC "-//W3C//DTD SVG 1.1//EN" "http://www.w3.org/Graphics/SVG/1.1/DTD/svg11.dtd">
<svg version="1.1" id="Layer_1" xmlns="http://www.w3.org/2000/svg" xmlns:xlink="http://www.w3.org/1999/xlink" x="0px" y="0px"
	 width="28px" height="28px" viewBox="0 0 28 28" enable-background="new 0 0 28 28" xml:space="preserve">
<path d="M5,7v3v11h18V10V7H5z M22,20H6V10h16V20z"/>
<rect x="7" y="11" width="2" height="2"/>
<rect x="10" y="11" width="2" height="2"/>
<rect x="13" y="11" width="2" height="2"/>
<rect x="16" y="11" width="2" height="2"/>
<rect x="19" y="11" width="2" height="2"/>
<rect x="7" y="14" width="2" height="2"/>
<rect x="10" y="14" width="2" height="2"/>
<rect x="13" y="14" width="2" height="2"/>
<rect x="16" y="14" width="2" height="2"/>
<rect x="19" y="14" width="2" height="2"/>
<rect x="7" y="17" width="2" height="2"/>
<rect x="10" y="17" width="2" height="2"/>
<rect x="13" y="17" width="2" height="2"/>
<rect x="16" y="17" width="2" height="2"/>
<rect x="19" y="17" width="2" height="2"/>
</svg>
